<svg width="512" height="512" xmlns="http://www.w3.org/2000/svg">

 <g>
  <title>Layer 1</title>
  <g id="svg_1">
   <path fill="#ce7c2f" id="svg_2" d="m473,452c0,11.046 -8.954,20 -20,20l-20,0l0,20c0,11.046 -8.954,20 -20,20s-20,-8.954 -20,-20l0,-20l-20,0c-11.046,0 -20,-8.954 -20,-20s8.954,-20 20,-20l20,0l0,-20c0,-11.046 8.954,-20 20,-20s20,8.954 20,20l0,20l20,0c11.046,0 20,8.954 20,20zm0,-312l0,192c0,11.046 -8.954,20 -20,20s-20,-8.954 -20,-20l0,-172l-40,0l0,60c0,11.046 -8.954,20 -20,20s-20,-8.954 -20,-20l0,-60l-192,0l0,60c0,11.046 -8.954,20 -20,20s-20,-8.954 -20,-20l0,-60l-40,0l0,312l212,0c11.046,0 20,8.954 20,20s-8.954,20 -20,20l-232,0c-11.046,0 -20,-8.954 -20,-20l0,-352c0,-11.046 8.954,-20 20,-20l60.946,0c7.945,-67.477 65.477,-120 135.054,-120s127.109,52.523 135.054,120l60.946,0c11.046,0 20,8.954 20,20zm-121.341,-20c-7.64,-45.345 -47.176,-80 -94.659,-80s-87.019,34.655 -94.659,80l189.318,0z"/>
  </g>
 </g>
</svg>