<?xml version="1.0" encoding="utf-8"?>
<!-- Generator: Adobe Illustrator 25.2.1, SVG Export Plug-In . SVG Version: 6.00 Build 0)  -->
<svg version="1.1" id="Camada_1" xmlns="http://www.w3.org/2000/svg" xmlns:xlink="http://www.w3.org/1999/xlink" x="0px" y="0px"
	 viewBox="0 0 563.76 429.64" style="enable-background:new 0 0 563.76 429.64;" xml:space="preserve">
<style type="text/css">
	.st0{fill:#603813;}
	.st1{fill:#F7931E;}
</style>
<g>
	<path class="st0" d="M396.36,304.6H132.43c-1.04,0-1.88-0.84-1.88-1.88V38.92c0-1.63,1.95-2.5,3.14-1.39
		c0.15,0.14,0.3,0.28,0.44,0.43c27.51,27.5,55.06,54.98,82.42,82.63c2.02,2.04,3.7,6.07,3.72,8.94c0.23,26.27,0.14,52.53,0.14,78.8
		c0,1.4,0,2.81,0,4.36c0,1.04,0.84,1.88,1.88,1.88c3.37,0,6.3,0,9.24,0c25,0,50-0.05,74.99,0.12c2.22,0.01,5.05,0.85,6.56,2.35
		c28.29,28.03,56.42,56.22,84.57,84.39c0.01,0.01,0.02,0.02,0.02,0.02C398.86,302.61,398.01,304.6,396.36,304.6z"/>
</g>
<g>
	<path class="st1" d="M151.29,26.62h189.14c44.54,0,80.65,36.11,80.65,80.65v189c0,0.05-0.06,0.07-0.1,0.04
		c-1.41-1.22-2.51-2.07-3.48-3.04c-27.69-27.68-55.41-55.33-82.94-83.16c-1.73-1.75-3.17-5.21-3.2-7.67
		c-0.23-26.51-0.15-53.03-0.15-79.54v0c0-3.45-2.8-6.24-6.24-6.24c-1.67,0-3.27,0-4.88,0c-25,0-50,0.05-74.99-0.12
		c-2.22-0.01-5.05-0.85-6.56-2.35c-28.29-28.03-56.42-56.22-84.57-84.39c-0.76-0.76-1.44-1.62-2.72-3.08
		C151.21,26.68,151.24,26.62,151.29,26.62z"/>
</g>
<g>
	<path class="st0" d="M71.79,323.69l-1.64,51.75l-25.5,10.86h-9.34l-0.88,21.71H18.39l3.16-84.32H71.79z M54.75,339.84H37.33
		l-1.26,29.54h8.58l9.34-4.04L54.75,339.84z"/>
	<path class="st0" d="M129.03,324.7l-1.89,84.45h-16.28l0.4-18.92l-17.41,7.47l-0.41,11.45H77.02l3.03-84.45H129.03z M111.61,373.04
		l0.67-31.93h-16.4l-1.41,39.29L111.61,373.04z"/>
	<path class="st0" d="M189.93,323.69l-0.5,16.28H154.6l-0.53,17.67h33.08l-1.51,50.49h-50.11l0.38-16.41h33.78l0.49-17.67h-33
		l1.51-50.37H189.93z"/>
	<path class="st0" d="M197.92,323.69h53.4l-0.51,16.28h-17.67l-2.9,68.17h-16.03l2.65-68.17h-19.57L197.92,323.69z"/>
	<path class="st0" d="M299.79,323.56l-0.88,16.41h-26.16l-0.53,16.16h25.56l-0.76,16.41h-25.34l-0.6,18.18H296l-0.88,17.29h-41.03
		l2.78-84.32L299.79,323.56z"/>
	<path class="st0" d="M322.26,391.73h29.45l-0.5,16.41h-45.95l3.03-84.2h16.41L322.26,391.73z"/>
	<path class="st0" d="M409.48,324.7l-1.89,84.45h-16.28l0.4-18.92l-17.41,7.47l-0.41,11.45h-16.41l3.03-84.45H409.48z
		 M392.06,373.04l0.67-31.93h-16.4l-1.41,39.29L392.06,373.04z"/>
	<path class="st0" d="M469.01,323.69l-1.64,44.69l-15.15,13.13l14.01,13.76v13h-13.13l-19.57-20.2l-0.63,20.07H416.5l3.03-84.45
		H469.01z M451.97,340.1h-16.66l-1.26,34.97l17.17-13.76L451.97,340.1z"/>
	<path class="st0" d="M478.03,323.56h16.41l-2.9,84.58h-16.41L478.03,323.56z"/>
	<path class="st0" d="M553.18,324.7l-1.89,84.45H535l0.4-18.92l-17.41,7.47l-0.41,11.45h-16.41l3.03-84.45H553.18z M535.76,373.04
		l0.67-31.93h-16.4l-1.41,39.29L535.76,373.04z"/>
</g>
</svg>
