<?xml version="1.0" encoding="utf-8"?>
<!-- Generator: Adobe Illustrator 25.2.1, SVG Export Plug-In . SVG Version: 6.00 Build 0)  -->
<svg version="1.1" id="Camada_1" xmlns="http://www.w3.org/2000/svg" xmlns:xlink="http://www.w3.org/1999/xlink" x="0px" y="0px"
	 viewBox="0 0 320.76 300.91" style="enable-background:new 0 0 320.76 300.91;" xml:space="preserve">
<style type="text/css">
	.st0{fill:#603813;}
	.st1{fill:#F7931E;}
</style>
<g>
	<g>
		<path class="st0" d="M283.08,293.97H19.15c-1.04,0-1.88-0.84-1.88-1.88V28.28c0-1.63,1.95-2.5,3.14-1.39
			c0.15,0.14,0.3,0.28,0.44,0.43c27.51,27.5,55.06,54.98,82.42,82.63c2.02,2.04,3.7,6.07,3.72,8.94c0.23,26.27,0.14,52.53,0.14,78.8
			c0,1.4,0,2.81,0,4.36c0,1.04,0.84,1.88,1.88,1.88c3.37,0,6.3,0,9.24,0c25,0,50-0.05,74.99,0.12c2.22,0.01,5.05,0.85,6.56,2.35
			c28.29,28.03,56.42,56.22,84.57,84.39c0.01,0.01,0.02,0.02,0.02,0.02C285.58,291.98,284.73,293.97,283.08,293.97z"/>
	</g>
	<g>
		<path class="st1" d="M38.01,15.99h189.14c44.54,0,80.65,36.11,80.65,80.65v189c0,0.05-0.06,0.07-0.1,0.04
			c-1.41-1.22-2.51-2.07-3.48-3.04c-27.69-27.68-55.41-55.33-82.94-83.16c-1.73-1.75-3.17-5.21-3.2-7.67
			c-0.23-26.51-0.15-53.03-0.15-79.54v0c0-3.45-2.8-6.24-6.24-6.24c-1.67,0-3.27,0-4.88,0c-25,0-50,0.05-74.99-0.12
			c-2.22-0.01-5.05-0.85-6.56-2.35C96.98,75.53,68.84,47.34,40.69,19.17c-0.76-0.76-1.44-1.62-2.72-3.08
			C37.93,16.05,37.96,15.99,38.01,15.99z"/>
	</g>
</g>
</svg>
