<?xml version="1.0" encoding="utf-8"?>
<!-- Generator: Adobe Illustrator 25.2.1, SVG Export Plug-In . SVG Version: 6.00 Build 0)  -->
<svg version="1.1" id="Camada_1" xmlns="http://www.w3.org/2000/svg" xmlns:xlink="http://www.w3.org/1999/xlink" x="0px" y="0px"
	 viewBox="0 0 397.44 143.64" style="enable-background:new 0 0 397.44 143.64;" xml:space="preserve">
<style type="text/css">
	.st0{fill:#603813;}
	.st1{fill:#F7931E;}
</style>
<g>
	<g>
		<g>
			<path class="st0" d="M126.96,136.32H10.64c-0.46,0-0.83-0.37-0.83-0.83V19.22c0-0.72,0.86-1.1,1.38-0.61
				c0.07,0.06,0.13,0.12,0.2,0.19c12.13,12.12,24.27,24.23,36.33,36.42c0.89,0.9,1.63,2.67,1.64,3.94
				c0.1,11.58,0.06,23.15,0.06,34.73c0,0.62,0,1.24,0,1.92c0,0.46,0.37,0.83,0.83,0.83c1.48,0,2.78,0,4.07,0
				c11.02,0,22.03-0.02,33.05,0.05c0.98,0.01,2.23,0.38,2.89,1.04c12.47,12.36,24.86,24.78,37.27,37.19c0,0,0.01,0.01,0.01,0.01
				C128.06,135.44,127.68,136.32,126.96,136.32z"/>
		</g>
		<g>
			<path class="st1" d="M18.95,13.8h83.36c19.63,0,35.54,15.91,35.54,35.54v83.3c0,0.02-0.03,0.03-0.04,0.02
				c-0.62-0.54-1.11-0.91-1.53-1.34c-12.2-12.2-24.42-24.38-36.55-36.65c-0.76-0.77-1.4-2.29-1.41-3.38
				c-0.1-11.68-0.06-23.37-0.06-35.06v0c0-1.52-1.23-2.75-2.75-2.75c-0.74,0-1.44,0-2.15,0c-11.02,0-22.03,0.02-33.05-0.05
				c-0.98-0.01-2.23-0.38-2.89-1.04C44.93,40.04,32.54,27.62,20.13,15.21c-0.34-0.34-0.63-0.71-1.2-1.36
				C18.91,13.83,18.92,13.8,18.95,13.8z"/>
		</g>
	</g>
	<g>
		<path class="st0" d="M179.75,67.38l-0.72,22.81l-11.24,4.78h-4.12l-0.39,9.57h-7.07l1.39-37.16H179.75z M172.24,74.5h-7.68
			L164,87.52h3.78l4.12-1.78L172.24,74.5z"/>
		<path class="st0" d="M204.98,67.83l-0.83,37.22h-7.18l0.17-8.34l-7.67,3.29l-0.18,5.05h-7.23l1.33-37.22H204.98z M197.3,89.13
			l0.29-14.07h-7.23l-0.62,17.32L197.3,89.13z"/>
		<path class="st0" d="M231.81,67.38l-0.22,7.18h-15.35l-0.23,7.79h14.58l-0.67,22.25h-22.09l0.17-7.23h14.89l0.21-7.79h-14.54
			l0.67-22.2H231.81z"/>
		<path class="st0" d="M235.34,67.38h23.53l-0.22,7.18h-7.79l-1.28,30.04h-7.07l1.17-30.04h-8.62L235.34,67.38z"/>
		<path class="st0" d="M280.23,67.33l-0.39,7.23h-11.53l-0.23,7.12h11.26l-0.33,7.23h-11.17l-0.26,8.01h10.99l-0.39,7.62h-18.08
			l1.22-37.16L280.23,67.33z"/>
		<path class="st0" d="M290.14,97.37h12.98l-0.22,7.23h-20.25l1.34-37.11h7.23L290.14,97.37z"/>
		<path class="st0" d="M328.58,67.83l-0.83,37.22h-7.18l0.17-8.34l-7.67,3.29l-0.18,5.05h-7.23l1.34-37.22H328.58z M320.9,89.13
			l0.29-14.07h-7.23l-0.62,17.32L320.9,89.13z"/>
		<path class="st0" d="M354.81,67.38l-0.72,19.69l-6.68,5.79l6.17,6.06v5.73h-5.79l-8.62-8.9l-0.28,8.85h-7.23l1.34-37.22H354.81z
			 M347.3,74.61h-7.34l-0.56,15.41l7.57-6.06L347.3,74.61z"/>
		<path class="st0" d="M358.79,67.33h7.23l-1.28,37.28h-7.23L358.79,67.33z"/>
		<path class="st0" d="M391.91,67.83l-0.83,37.22h-7.18l0.17-8.34L376.4,100l-0.18,5.05h-7.23l1.34-37.22H391.91z M384.23,89.13
			l0.29-14.07h-7.23l-0.62,17.32L384.23,89.13z"/>
	</g>
</g>
</svg>
